<svg width="142" height="24" viewBox="0 0 142 24" fill="none" xmlns="http://www.w3.org/2000/svg">
<path d="M7.272 18.762C5.944 18.762 4.784 18.514 3.792 18.018C2.816 17.522 2.056 16.81 1.512 15.882C0.968 14.954 0.696 13.85 0.696 12.57C0.696 11.29 0.968 10.194 1.512 9.28205C2.056 8.35405 2.816 7.65005 3.792 7.17005C4.784 6.67405 5.944 6.42605 7.272 6.42605C8.056 6.42605 8.832 6.53805 9.6 6.76205C10.384 6.97005 11.024 7.26605 11.52 7.65005L10.392 10.578C10.024 10.29 9.592 10.066 9.096 9.90605C8.616 9.73005 8.16 9.64205 7.728 9.64205C6.88 9.64205 6.224 9.89805 5.76 10.41C5.296 10.922 5.064 11.642 5.064 12.57C5.064 13.514 5.296 14.25 5.76 14.778C6.224 15.29 6.88 15.546 7.728 15.546C8.16 15.546 8.616 15.466 9.096 15.306C9.592 15.13 10.024 14.898 10.392 14.61L11.52 17.538C11.024 17.922 10.384 18.226 9.6 18.45C8.816 18.658 8.04 18.762 7.272 18.762ZM12.873 18.498V6.69005H17.025V8.68205C17.569 7.32205 18.745 6.57805 20.553 6.45005L21.729 6.35405L21.969 9.95405L19.641 10.17C18.793 10.25 18.177 10.49 17.793 10.89C17.409 11.274 17.217 11.85 17.217 12.618V18.498H12.873ZM24.7258 22.818L27.1018 17.682L22.2778 6.69005H26.7658L29.3578 13.386L32.0458 6.69005H36.2698L29.0458 22.818H24.7258ZM36.9902 22.818V6.69005H41.1422V8.29805C41.4622 7.72205 41.9502 7.26605 42.6062 6.93005C43.2622 6.59405 43.9822 6.42605 44.7662 6.42605C45.7742 6.42605 46.6622 6.67405 47.4302 7.17005C48.2142 7.66605 48.8222 8.37805 49.2542 9.30605C49.7022 10.218 49.9262 11.314 49.9262 12.594C49.9262 13.858 49.7102 14.954 49.2782 15.882C48.8462 16.81 48.2382 17.522 47.4542 18.018C46.6862 18.514 45.7902 18.762 44.7662 18.762C44.0302 18.762 43.3422 18.61 42.7022 18.306C42.0782 18.002 41.5982 17.594 41.2622 17.082V22.818H36.9902ZM43.4222 15.618C44.0622 15.618 44.5902 15.378 45.0062 14.898C45.4222 14.418 45.6302 13.65 45.6302 12.594C45.6302 11.522 45.4222 10.754 45.0062 10.29C44.5902 9.81005 44.0622 9.57005 43.4222 9.57005C42.7662 9.57005 42.2302 9.81005 41.8142 10.29C41.3982 10.754 41.1902 11.522 41.1902 12.594C41.1902 13.65 41.3982 14.418 41.8142 14.898C42.2302 15.378 42.7662 15.618 43.4222 15.618ZM57.9478 18.762C56.1558 18.762 54.8278 18.346 53.9638 17.514C53.0998 16.682 52.6678 15.426 52.6678 13.746V9.83405H50.4598V6.69005H52.6678V3.25805H56.9398V6.69005H60.2998V9.83405H56.9398V13.602C56.9398 14.754 57.5238 15.33 58.6918 15.33C58.8838 15.33 59.0918 15.314 59.3158 15.282C59.5558 15.234 59.8198 15.17 60.1078 15.09L60.6838 18.162C60.3158 18.354 59.8838 18.498 59.3878 18.594C58.8918 18.706 58.4118 18.762 57.9478 18.762ZM67.8334 18.762C66.5214 18.762 65.3774 18.514 64.4014 18.018C63.4254 17.522 62.6654 16.81 62.1214 15.882C61.5774 14.954 61.3054 13.858 61.3054 12.594C61.3054 11.314 61.5774 10.218 62.1214 9.30605C62.6654 8.37805 63.4254 7.66605 64.4014 7.17005C65.3774 6.67405 66.5214 6.42605 67.8334 6.42605C69.1454 6.42605 70.2894 6.67405 71.2654 7.17005C72.2414 7.66605 72.9934 8.37805 73.5214 9.30605C74.0654 10.218 74.3374 11.314 74.3374 12.594C74.3374 13.858 74.0654 14.954 73.5214 15.882C72.9934 16.81 72.2414 17.522 71.2654 18.018C70.2894 18.514 69.1454 18.762 67.8334 18.762ZM67.8334 15.618C68.4734 15.618 69.0014 15.378 69.4174 14.898C69.8334 14.418 70.0414 13.65 70.0414 12.594C70.0414 11.522 69.8334 10.754 69.4174 10.29C69.0014 9.81005 68.4734 9.57005 67.8334 9.57005C67.1774 9.57005 66.6414 9.81005 66.2254 10.29C65.8094 10.754 65.6014 11.522 65.6014 12.594C65.6014 13.65 65.8094 14.418 66.2254 14.898C66.6414 15.378 67.1774 15.618 67.8334 15.618Z" fill="white"/>
<path d="M89.2549 23.97L86.5429 19.578C86.1909 19.034 85.5829 18.762 84.7189 18.762C83.0069 18.762 81.5029 18.402 80.2069 17.682C78.9269 16.946 77.9269 15.922 77.2069 14.61C76.5029 13.298 76.1509 11.77 76.1509 10.026C76.1509 8.26605 76.5029 6.73805 77.2069 5.44205C77.9269 4.13005 78.9349 3.11405 80.2309 2.39405C81.5269 1.67405 83.0309 1.31405 84.7429 1.31405C86.4549 1.31405 87.9509 1.67405 89.2309 2.39405C90.5269 3.11405 91.5349 4.13005 92.2549 5.44205C92.9749 6.73805 93.3349 8.26605 93.3349 10.026C93.3349 11.786 92.9669 13.33 92.2309 14.658C91.5109 15.97 90.5029 16.978 89.2069 17.682C89.9909 17.906 90.6229 18.418 91.1029 19.218L93.0229 22.266L89.2549 23.97ZM84.7429 15.066C85.9909 15.066 86.9669 14.626 87.6709 13.746C88.3909 12.85 88.7509 11.61 88.7509 10.026C88.7509 8.44205 88.3989 7.21005 87.6949 6.33005C86.9909 5.45005 86.0069 5.01005 84.7429 5.01005C83.4789 5.01005 82.4949 5.45005 81.7909 6.33005C81.0869 7.21005 80.7349 8.44205 80.7349 10.026C80.7349 11.61 81.0869 12.85 81.7909 13.746C82.4949 14.626 83.4789 15.066 84.7429 15.066ZM100.07 18.762C98.5343 18.762 97.3983 18.346 96.6623 17.514C95.9423 16.666 95.5823 15.378 95.5823 13.65V6.69005H99.8543V13.77C99.8543 14.922 100.35 15.498 101.342 15.498C101.918 15.498 102.39 15.29 102.758 14.874C103.126 14.458 103.31 13.906 103.31 13.218V6.69005H107.582V18.498H103.406V17.034C102.638 18.186 101.526 18.762 100.07 18.762ZM109.948 4.65005V0.786046H114.436V4.65005H109.948ZM110.068 18.498V6.69005H114.34V18.498H110.068ZM122.842 18.762C121.514 18.762 120.354 18.514 119.362 18.018C118.386 17.522 117.626 16.81 117.082 15.882C116.538 14.954 116.266 13.85 116.266 12.57C116.266 11.29 116.538 10.194 117.082 9.28205C117.626 8.35405 118.386 7.65005 119.362 7.17005C120.354 6.67405 121.514 6.42605 122.842 6.42605C123.626 6.42605 124.402 6.53805 125.17 6.76205C125.954 6.97005 126.594 7.26605 127.09 7.65005L125.962 10.578C125.594 10.29 125.162 10.066 124.666 9.90605C124.186 9.73005 123.73 9.64205 123.298 9.64205C122.45 9.64205 121.794 9.89805 121.33 10.41C120.866 10.922 120.634 11.642 120.634 12.57C120.634 13.514 120.866 14.25 121.33 14.778C121.794 15.29 122.45 15.546 123.298 15.546C123.73 15.546 124.186 15.466 124.666 15.306C125.162 15.13 125.594 14.898 125.962 14.61L127.09 17.538C126.594 17.922 125.954 18.226 125.17 18.45C124.386 18.658 123.61 18.762 122.842 18.762ZM128.443 18.498V1.57805H132.715V11.442H132.763L136.651 6.69005H141.667L136.987 12.306L141.835 18.498H136.723L132.763 13.578H132.715V18.498H128.443Z" fill="#326CF4"/>
</svg>
